<svg xmlns="http://www.w3.org/2000/svg" xmlns:xlink="http://www.w3.org/1999/xlink" width="200" height="200" viewBox="0 0 200 200"><defs><clipPath id="a"><circle cx="99.5" cy="99.5" r="99.5" transform="translate(1)" fill="#f3f4f6"/></clipPath><clipPath id="c"><rect width="200" height="200"/></clipPath></defs><g id="b" clip-path="url(#c)"><circle cx="99.5" cy="99.5" r="99.5" transform="translate(1)" fill="#f3f4f6"/><g clip-path="url(#a)"><path d="M111.32,98.936,76.631,133.625,41.942,98.936A45.829,45.829,0,0,0,0,144.5v14.231a16.425,16.425,0,0,0,16.421,16.421h120.42a16.425,16.425,0,0,0,16.421-16.421V144.5A45.829,45.829,0,0,0,111.32,98.936ZM10.947,65.684a32.659,32.659,0,0,0,23.674-10.16,43.781,43.781,0,1,0,2.839-30.96A32.681,32.681,0,0,0,10.947,10.947,32.754,32.754,0,0,0,25.692,38.316,32.754,32.754,0,0,0,10.947,65.684ZM60.21,32.842H93.052A10.936,10.936,0,0,1,104,43.789H49.263A10.936,10.936,0,0,1,60.21,32.842Z" transform="translate(23.869 24.843)" fill="#6b7280"/></g></g></svg>